<svg width="50" height="50" viewBox="0 0 50 50" fill="none" xmlns="http://www.w3.org/2000/svg">
<g clip-path="url(#clip0_2_35)">
<path d="M50 25C50 38.807 38.807 50 25 50C11.193 50 0 38.807 0 25C0 11.193 11.193 0 25 0C38.807 0 50 11.193 50 25Z" fill="#FF3B30"/>
<mask id="mask0_2_35" style="mask-type:luminance" maskUnits="userSpaceOnUse" x="0" y="0" width="50" height="50">
<path d="M50 25C50 38.807 38.807 50 25 50C11.193 50 0 38.807 0 25C0 11.193 11.193 0 25 0C38.807 0 50 11.193 50 25Z" fill="white"/>
</mask>
<g mask="url(#mask0_2_35)">
<path d="M25 33.6515C22.7803 33.7088 18.1385 32.2793 11.0383 25.2246C17.2732 18.914 21.5814 16.7383 24.9086 16.658C27.1283 16.6008 31.165 17.8424 38.932 25.2246C32.8758 31.2648 28.3273 33.5713 25 33.6515ZM41.9558 25.5006C41.8797 25.4267 41.7525 25.2976 41.6766 25.2246C45.2488 21.674 47.8166 19.064 49.5107 17.3207C49.3057 16.6658 49.0742 16.0226 48.8193 15.3914C46.5535 17.6551 42.7764 21.4443 40.3342 24.0056C33.9685 17.876 28.8658 14.8367 25.0199 14.8666C24.9682 14.867 24.9164 14.8681 24.8654 14.8685C20.7406 14.8941 15.8869 17.9685 9.69569 23.941C9.62889 23.8769 4.21346 18.1822 1.2955 15.1105C0.999402 15.8193 0.733972 16.5439 0.50116 17.2834C3.56171 20.5113 8.31444 25.2861 8.3662 25.3357C8.25175 25.4457 3.658 30.0189 0.650769 33.1771C0.883191 33.8693 1.14511 34.548 1.43358 35.2125C4.35311 32.1611 9.54979 26.7371 9.68671 26.6056C16.2578 32.7027 21.2092 35.5824 24.8672 35.5824C24.9189 35.5824 24.9707 35.5818 25.0217 35.5806C28.8535 35.4879 33.2877 33.1166 40.3605 26.5144C40.4262 26.5775 45.6822 31.9914 48.6408 35.0424C48.9049 34.4219 49.1445 33.7887 49.36 33.1441C47.5361 31.1471 44.8853 28.3316 41.9558 25.5006Z" fill="white"/>
</g>
<mask id="mask1_2_35" style="mask-type:luminance" maskUnits="userSpaceOnUse" x="0" y="0" width="50" height="50">
<path d="M50 25C50 38.807 38.807 50 25 50C11.193 50 0 38.807 0 25C0 11.193 11.193 0 25 0C38.807 0 50 11.193 50 25Z" fill="white"/>
</mask>
<g mask="url(#mask1_2_35)">
<path d="M29.2366 22.3565V28.1208L25.0001 30.2272L20.7634 28.0014V22.2372L25.0001 20.1471L29.2366 22.3565ZM24.2081 18.5419L19.9714 20.6319C19.3604 20.9335 18.9735 21.5557 18.9735 22.2372V28.0014C18.9735 28.6665 19.3423 29.2766 19.9307 29.586L24.1675 31.812C24.428 31.9487 24.7139 32.017 25.0001 32.017C25.2727 32.017 25.5458 31.9549 25.7969 31.8299L30.0335 29.7235C30.6419 29.421 31.0264 28.8003 31.0264 28.1208V22.3565C31.0264 21.6895 30.6557 21.0778 30.0641 20.7694L25.8276 18.56C25.5686 18.4249 25.2844 18.3571 25.0001 18.3571C24.729 18.3571 24.4579 18.4186 24.2081 18.5419Z" fill="white"/>
</g>
</g>
<defs>
<clipPath id="clip0_2_35">
<rect width="50" height="50" fill="white"/>
</clipPath>
</defs>
</svg>
